<svg width="100" height="100" viewBox="0 0 100 100" fill="none" xmlns="http://www.w3.org/2000/svg">
<path d="M46.875 25.1125V18.75H37.5C36.6712 18.75 35.8764 18.4208 35.2903 17.8347C34.7043 17.2487 34.375 16.4538 34.375 15.625C34.375 14.7962 34.7043 14.0013 35.2903 13.4153C35.8764 12.8292 36.6712 12.5 37.5 12.5H62.5C63.3288 12.5 64.1237 12.8292 64.7097 13.4153C65.2958 14.0013 65.625 14.7962 65.625 15.625C65.625 16.4538 65.2958 17.2487 64.7097 17.8347C64.1237 18.4208 63.3288 18.75 62.5 18.75H53.125V25.1125C59.1206 25.5403 64.9636 27.199 70.2897 29.9851C75.6158 32.7711 80.3106 36.6248 84.0814 41.3057C87.8522 45.9866 90.6179 51.3943 92.2061 57.1915C93.7944 62.9886 94.171 69.0508 93.3125 75H6.68752C5.82905 69.0508 6.20568 62.9886 7.79391 57.1915C9.38213 51.3943 12.1479 45.9866 15.9186 41.3057C19.6894 36.6248 24.3843 32.7711 29.7103 29.9851C35.0364 27.199 40.8795 25.5403 46.875 25.1125ZM12.5 68.75H87.5C87.5 63.8254 86.5301 58.9491 84.6455 54.3994C82.761 49.8497 79.9987 45.7157 76.5165 42.2335C73.0343 38.7513 68.9004 35.9891 64.3507 34.1045C59.8009 32.22 54.9246 31.25 50 31.25C45.0755 31.25 40.1991 32.22 35.6494 34.1045C31.0997 35.9891 26.9657 38.7513 23.4835 42.2335C20.0013 45.7157 17.2391 49.8497 15.3545 54.3994C13.47 58.9491 12.5 63.8254 12.5 68.75ZM9.37502 81.25H90.625C91.4538 81.25 92.2487 81.5792 92.8347 82.1653C93.4208 82.7513 93.75 83.5462 93.75 84.375C93.75 85.2038 93.4208 85.9987 92.8347 86.5847C92.2487 87.1708 91.4538 87.5 90.625 87.5H9.37502C8.54622 87.5 7.75137 87.1708 7.16531 86.5847C6.57926 85.9987 6.25002 85.2038 6.25002 84.375C6.25002 83.5462 6.57926 82.7513 7.16531 82.1653C7.75137 81.5792 8.54622 81.25 9.37502 81.25Z" fill="black"/>
</svg>
