<svg width="100" height="100" viewBox="0 0 100 100" fill="none" xmlns="http://www.w3.org/2000/svg">
<path d="M21.3125 64.2969V76.2781C24.9725 80.7662 29.5864 84.3825 34.819 86.8642C40.0515 89.3459 45.7713 90.6306 51.5625 90.625C65.075 90.625 76.9875 83.7625 84 73.3344V56.5406C81.6 72.3 67.9906 84.375 51.5625 84.375C37.9563 84.375 26.2844 76.0937 21.3125 64.2969ZM78.2188 32.425V27.0437C78.2095 25.8569 78.404 24.6773 78.7938 23.5562C71.5097 16.4548 61.7354 12.4863 51.5625 12.5C42.4589 12.4865 33.6388 15.6657 26.6375 21.4844L26.6531 21.675L26.6562 21.7594V30.1969C29.7337 26.6022 33.5539 23.7174 37.8537 21.7412C42.1534 19.7651 46.8304 18.7446 51.5625 18.75C62.5438 18.75 72.2625 24.1437 78.2188 32.425Z" fill="black"/>
<path d="M76.5625 51.5625C76.5625 58.1929 73.9286 64.5518 69.2402 69.2402C64.5518 73.9286 58.1929 76.5625 51.5625 76.5625C44.9321 76.5625 38.5732 73.9286 33.8848 69.2402C29.1964 64.5518 26.5625 58.1929 26.5625 51.5625C26.5625 44.9321 29.1964 38.5732 33.8848 33.8848C38.5732 29.1964 44.9321 26.5625 51.5625 26.5625C58.1929 26.5625 64.5518 29.1964 69.2402 33.8848C73.9286 38.5732 76.5625 44.9321 76.5625 51.5625ZM51.5625 73.4375C54.4352 73.4375 57.2797 72.8717 59.9337 71.7724C62.5877 70.673 64.9992 69.0617 67.0305 67.0305C69.0617 64.9992 70.673 62.5877 71.7724 59.9337C72.8717 57.2797 73.4375 54.4352 73.4375 51.5625C73.4375 48.6898 72.8717 45.8453 71.7724 43.1913C70.673 40.5373 69.0617 38.1258 67.0305 36.0945C64.9992 34.0633 62.5877 32.452 59.9337 31.3526C57.2797 30.2533 54.4352 29.6875 51.5625 29.6875C45.7609 29.6875 40.1969 31.9922 36.0945 36.0945C31.9922 40.1969 29.6875 45.7609 29.6875 51.5625C29.6875 57.3641 31.9922 62.9281 36.0945 67.0305C40.1969 71.1328 45.7609 73.4375 51.5625 73.4375ZM93.7187 24.8125C93.7187 22 91.4375 19.7188 88.625 19.7188C84.5625 19.7188 81.3125 23 81.3438 27.0313V44.375C81.3438 48.2906 83.6125 51.7969 87.125 53.3844V80.3125C87.125 81.9375 88.4375 83.25 90.0625 83.25H90.7812C92.4062 83.25 93.7187 81.9375 93.7187 80.3125V24.8125ZM21.3125 19.7188C20.7489 19.7188 20.2084 19.9426 19.8099 20.3412C19.4114 20.7397 19.1875 21.2802 19.1875 21.8438V30.25C19.1875 30.875 18.6875 31.3438 18.0937 31.3438C17.4687 31.3438 17 30.8438 17 30.25V21.9375C17 20.7813 16.0938 19.75 14.9375 19.7188C13.7188 19.6875 12.7188 20.6563 12.7188 21.8438V30.25C12.7188 30.875 12.2188 31.3438 11.625 31.3438C11 31.3438 10.5312 30.8438 10.5312 30.25V21.9375C10.5312 20.7813 9.625 19.75 8.46875 19.7188C7.25 19.6875 6.25 20.6563 6.25 21.8438V36.1563C6.25 38.975 7.61562 41.4906 9.71562 43.0594C11.5937 44.1188 11.5938 48.9688 11.5938 48.9688V80.2813C11.5938 81.9063 12.9063 83.2187 14.5313 83.2187H15.25C16.875 83.2187 18.1875 81.9063 18.1875 80.2813V48.9688C18.1875 48.9688 18.1875 44.3094 20.0656 43.0594C21.1407 42.2578 22.0137 41.2164 22.6154 40.018C23.217 38.8195 23.5306 37.4972 23.5313 36.1563V21.8438C23.4996 21.2743 23.2529 20.7381 22.841 20.3436C22.4291 19.9491 21.8828 19.7258 21.3125 19.7188Z" fill="black"/>
</svg>
