<svg width="91" height="91" viewBox="0 0 91 91" fill="none" xmlns="http://www.w3.org/2000/svg">
<path fill-rule="evenodd" clip-rule="evenodd" d="M21.1575 21.1575C21.9573 20.3587 23.0415 19.91 24.1719 19.91C25.3023 19.91 26.3865 20.3587 27.1863 21.1575L45.5 39.4712L63.8138 21.1575C64.2043 20.7384 64.6752 20.4023 65.1985 20.1691C65.7217 19.936 66.2866 19.8106 66.8593 19.8005C67.4321 19.7904 68.001 19.8958 68.5321 20.1103C69.0633 20.3248 69.5458 20.6442 69.9508 21.0492C70.3559 21.4543 70.6752 21.9368 70.8897 22.4679C71.1043 22.999 71.2096 23.568 71.1995 24.1407C71.1894 24.7135 71.0641 25.2783 70.8309 25.8016C70.5978 26.3248 70.2616 26.7957 69.8425 27.1862L51.5288 45.5L69.8425 63.8137C70.2616 64.2043 70.5978 64.6752 70.8309 65.1984C71.0641 65.7217 71.1894 66.2865 71.1995 66.8593C71.2096 67.432 71.1043 68.0009 70.8897 68.5321C70.6752 69.0632 70.3559 69.5457 69.9508 69.9508C69.5458 70.3558 69.0633 70.6752 68.5321 70.8897C68.001 71.1042 67.4321 71.2096 66.8593 71.1995C66.2866 71.1894 65.7217 71.064 65.1985 70.8309C64.6752 70.5977 64.2043 70.2616 63.8138 69.8425L45.5 51.5287L27.1863 69.8425C26.3777 70.596 25.3081 71.0062 24.2031 70.9867C23.098 70.9672 22.0436 70.5195 21.2621 69.738C20.4805 68.9564 20.0328 67.902 20.0133 66.797C19.9939 65.6919 20.4041 64.6224 21.1575 63.8137L39.4713 45.5L21.1575 27.1862C20.3587 26.3864 19.91 25.3023 19.91 24.1719C19.91 23.0415 20.3587 21.9573 21.1575 21.1575V21.1575Z" fill="#F8F8F8"/>
</svg>
